<?xml version="1.0" encoding="UTF-8" standalone="no"?> <!-- Created with Vectornator for iOS (http://vectornator.io/) --><!DOCTYPE svg PUBLIC "-//W3C//DTD SVG 1.1//EN" "http://www.w3.org/Graphics/SVG/1.1/DTD/svg11.dtd">
<svg height="100%" version="1.1" xmlns="http://www.w3.org/2000/svg" xml:space="preserve" style="fill-rule:nonzero;clip-rule:evenodd;stroke-linecap:round;stroke-linejoin:round;" xmlns:xlink="http://www.w3.org/1999/xlink" xmlns:vectornator="http://vectornator.io" viewBox="0 0 512 512" width="100%">
<metadata>
<vectornator:setting key="WDRulersVisible" value="true"/>
<vectornator:setting value="true" key="VNSnapToGuides"/>
<vectornator:setting value="false" key="IsTimeLapseWatermarkDisabled"/>
<vectornator:setting value="false" key="WDSnapToEdges"/>
<vectornator:setting value="false" key="VNPencilOnly"/>
<vectornator:setting key="WDUnits" value="Points"/>
<vectornator:setting value="false" key="WDCMYKEnabledKey"/>
<vectornator:setting key="WDDynamicGuides" value="false"/>
<vectornator:setting key="WDGuidesVisible" value="true"/>
<vectornator:setting key="VNDimensionsVisible" value="true"/>
<vectornator:setting key="WDSnapToPoints" value="false"/>
<vectornator:setting key="WDDisplayWhiteBackground" value="false"/>
<vectornator:setting value="false" key="WDIsolateActiveLayer"/>
<vectornator:setting value="false" key="WDSnapToGrid"/>
<vectornator:setting value="false" key="UndoHistoryDisabled"/>
<vectornator:setting key="WDOutlineMode" value="false"/>
</metadata>
<defs/>
<g id="Untitled" vectornator:layerName="Untitled">
<path opacity="1" d="M141.933+6L370.067+6C445.141+6+506.001+66.86+506.001+141.935L506.001+370.065C506.001+445.14+445.141+506+370.067+506L141.933+506C66.8587+506+5.99869+445.14+5.99869+370.065L5.99869+141.935C5.99869+66.86+66.8587+6+141.933+6Z" fill="#ffeb00"/>
<g opacity="1">
<path fill="#000000" d="M89.9568+449.715L76.1201+449.715C60.8364+449.715+48.4465+437.325+48.4465+422.041L48.4465+131.469C48.4465+116.185+60.8364+103.795+76.1201+103.795L89.9568+103.795C105.241+103.795+117.63+116.185+117.63+131.469L117.63+422.041C117.63+437.325+105.241+449.715+89.9568+449.715ZM242.161+186.816C242.161+171.532+229.771+159.143+214.488+159.143L159.141+159.143C143.857+159.143+131.467+171.532+131.467+186.816L131.467+211.03C131.467+212.941+133.016+214.49+134.926+214.49L238.702+214.49C240.613+214.49+242.161+212.941+242.161+211.03L242.161+186.816ZM131.467+422.041C131.467+437.325+143.857+449.715+159.141+449.715L214.488+449.715C229.771+449.715+242.161+437.325+242.161+422.041L242.161+396.097C242.161+395.142+241.387+394.368+240.432+394.368L133.197+394.368C132.242+394.368+131.467+395.142+131.467+396.097L131.467+422.041Z" opacity="1"/>
<path fill="#000000" d="M133.197+242.163L240.432+242.163C241.387+242.163+242.161+242.938+242.161+243.893L242.161+364.965C242.161+365.92+241.387+366.694+240.432+366.694L133.197+366.694C132.242+366.694+131.467+365.92+131.467+364.965L131.467+243.893C131.467+242.938+132.242+242.163+133.197+242.163Z" opacity="1"/>
<path opacity="1" d="M311.345+449.715L283.672+449.715C268.388+449.715+255.998+437.325+255.998+422.041L255.998+89.9587C255.998+74.675+268.388+62.2852+283.672+62.2852L311.345+62.2852C326.629+62.2852+339.019+74.675+339.019+89.9587L339.019+422.041C339.019+437.325+326.629+449.715+311.345+449.715ZM463.455+419.836L435.582+125.805C434.302+112.271+420.932+102.455+405.721+103.917L378.177+106.511C362.965+107.955+351.671+120.097+352.951+133.631L380.823+427.662C382.103+441.197+395.473+451.012+410.685+449.551L438.228+446.956C453.44+445.512+464.734+433.37+463.455+419.836Z" fill="#000000"/>
</g>
</g>
</svg>
