<?xml version="1.0" encoding="UTF-8" standalone="no"?> <!-- Created with Vectornator for iOS (http://vectornator.io/) --><!DOCTYPE svg PUBLIC "-//W3C//DTD SVG 1.1//EN" "http://www.w3.org/Graphics/SVG/1.1/DTD/svg11.dtd">
<svg xmlns="http://www.w3.org/2000/svg" xmlns:xlink="http://www.w3.org/1999/xlink" version="1.1" height="100%" viewBox="0 0 512 512" width="100%" style="fill-rule:nonzero;clip-rule:evenodd;stroke-linecap:round;stroke-linejoin:round;" xml:space="preserve" xmlns:vectornator="http://vectornator.io">
<metadata>
<vectornator:setting value="Points" key="WDUnits"/>
<vectornator:setting value="true" key="WDGuidesVisible"/>
<vectornator:setting value="false" key="WDSnapToPoints"/>
<vectornator:setting value="false" key="WDOutlineMode"/>
<vectornator:setting key="WDSnapToEdges" value="false"/>
<vectornator:setting value="true" key="VNSnapToGuides"/>
<vectornator:setting key="WDCMYKEnabledKey" value="false"/>
<vectornator:setting value="false" key="UndoHistoryDisabled"/>
<vectornator:setting value="false" key="WDDisplayWhiteBackground"/>
<vectornator:setting value="true" key="VNDimensionsVisible"/>
<vectornator:setting value="false" key="WDSnapToGrid"/>
<vectornator:setting value="false" key="VNPencilOnly"/>
<vectornator:setting key="IsTimeLapseWatermarkDisabled" value="false"/>
<vectornator:setting key="WDDynamicGuides" value="false"/>
<vectornator:setting key="WDIsolateActiveLayer" value="false"/>
<vectornator:setting value="true" key="WDRulersVisible"/>
</metadata>
<defs/>
<g id="Untitled" vectornator:layerName="Untitled">
<path opacity="1" fill="#1c8dff" d="M161.35+242C167.408+235.565+177.536+235.26+183.97+241.32C257.6+310.68+331.48+352.88+418.42+374.39C430.15+342.39+431.19+307.17+421.06+272.81C407.62+227.22+376.32+187.5+330.57+157.95C289.73+131.57+248.91+124.7+209.42+118.06C159.6+109.68+112.54+101.76+67.63+54.21C62.63+48.95+55.82+46.84+49.31+48.55C41.87+50.55+36.88+56.43+34.49+66.15C28.89+88.9+32.49+152.66+48.24+219.97C73.53+328.11+113.89+382.83+143.3+409.7C181.3+444.39+230.92+463.6+280.23+463.6C289.525+463.615+298.807+462.933+308+461.56C349.71+455.24+384.43+434.29+404+403.81C314.51+380.53+238.06+336.26+162+264.65C158.905+261.736+157.097+257.709+156.975+253.46C156.853+249.21+158.427+245.087+161.35+242ZM467.43+384.19C450.6+381.6+434.3+378.35+418.43+374.42C415.167+383.327+411.107+391.922+406.3+400.1C405.57+401.35+404.8+402.59+404.01+403.81C423.312+408.807+442.858+412.812+462.57+415.81L467.43+384.19Z"/>
</g>
</svg>
