<?xml version="1.0" encoding="UTF-8" standalone="no"?> <!-- Created with Vectornator for iOS (http://vectornator.io/) --><!DOCTYPE svg PUBLIC "-//W3C//DTD SVG 1.1//EN" "http://www.w3.org/Graphics/SVG/1.1/DTD/svg11.dtd">
<svg xmlns:vectornator="http://vectornator.io" width="100%" viewBox="0 0 512 512" xmlns="http://www.w3.org/2000/svg" xmlns:xlink="http://www.w3.org/1999/xlink" height="100%" style="fill-rule:nonzero;clip-rule:evenodd;stroke-linecap:round;stroke-linejoin:round;" version="1.1" xml:space="preserve">
<metadata>
<vectornator:setting value="Points" key="WDUnits"/>
<vectornator:setting value="false" key="WDDisplayWhiteBackground"/>
<vectornator:setting key="VNDimensionsVisible" value="true"/>
<vectornator:setting key="WDGuidesVisible" value="true"/>
<vectornator:setting key="WDDynamicGuides" value="false"/>
<vectornator:setting key="WDSnapToEdges" value="false"/>
<vectornator:setting key="WDIsolateActiveLayer" value="false"/>
<vectornator:setting value="false" key="WDOutlineMode"/>
<vectornator:setting key="WDCMYKEnabledKey" value="false"/>
<vectornator:setting key="VNPencilOnly" value="false"/>
<vectornator:setting key="WDRulersVisible" value="true"/>
<vectornator:setting value="false" key="IsTimeLapseWatermarkDisabled"/>
<vectornator:setting key="WDSnapToGrid" value="false"/>
<vectornator:setting key="UndoHistoryDisabled" value="false"/>
<vectornator:setting value="false" key="WDSnapToPoints"/>
<vectornator:setting value="true" key="VNSnapToGuides"/>
</metadata>
<defs/>
<g vectornator:layerName="Untitled" id="Untitled">
<path stroke="#707070" opacity="1" stroke-linejoin="round" stroke-linecap="round" stroke-width="32" fill="none" d="M403.29+32L280.36+32C276.539+31.9972+272.871+33.5072+270.16+36.2L24.4+281.9C13.1999+293.155+13.1999+311.345+24.4+322.6L141.4+439.6C152.659+450.801+170.851+450.801+182.11+439.6L427.8+194C430.493+191.289+432.003+187.621+432+183.8L432+60.8C432.037+53.166+429.027+45.8326+423.638+40.426C418.248+35.0195+410.924+31.9866+403.29+32Z"/>
<path opacity="1" d="M352+144C334.327+144+320+129.673+320+112C320+94.3269+334.327+80+352+80C369.673+80+384+94.3269+384+112C384+129.673+369.673+144+352+144Z" fill="#707070"/>
<path stroke-linejoin="round" stroke-linecap="round" opacity="1" d="M230+480L492+218C494.632+215.345+496.075+211.737+496+208L496+80" stroke="#707070" stroke-width="32" fill="none"/>
</g>
</svg>
